<?xml version="1.0" encoding="utf-8"?>
<!-- Generator: Adobe Illustrator 24.0.1, SVG Export Plug-In . SVG Version: 6.00 Build 0)  -->
<svg version="1.1" id="Layer_1" xmlns="http://www.w3.org/2000/svg" xmlns:xlink="http://www.w3.org/1999/xlink" x="0px" y="0px"
	 viewBox="0 0 500 500" style="enable-background:new 0 0 500 500;" xml:space="preserve">
<style type="text/css">
	.st0{fill:#FCEE21;}
	.st1{fill:#1B1464;}
	.st2{fill:#FFFFFF;}
</style>
<g>
	<circle class="st0" cx="250.02" cy="250.04" r="250"/>
</g>
<g>
	<polygon class="st1" points="345.25,235.16 154.78,235.16 250.02,44.68 	"/>
	<g>
		<path class="st1" d="M250.02,339.92c-51.99,0-101.01-7.64-138.03-21.53c-39.96-14.99-61.97-36.09-61.97-59.42
			s22.01-44.44,61.97-59.42c37.02-13.88,86.04-21.53,138.03-21.53c51.99,0,101.01,7.65,138.03,21.53
			c39.96,14.99,61.97,36.09,61.97,59.42s-22.01,44.44-61.97,59.42C351.03,332.28,302.01,339.92,250.02,339.92z"/>
		<path class="st0" d="M250.02,187.54c105.2,0,190.48,31.98,190.48,71.43s-85.28,71.43-190.48,71.43S59.54,298.42,59.54,258.97
			S144.82,187.54,250.02,187.54 M250.02,168.49c-53.11,0-103.31,7.86-141.38,22.13c-19.69,7.38-35.42,16.23-46.77,26.29
			c-17.67,15.67-21.38,31.52-21.38,42.06s3.71,26.39,21.38,42.06c11.35,10.06,27.08,18.9,46.77,26.29
			c38.06,14.27,88.27,22.13,141.38,22.13s103.31-7.86,141.38-22.13c19.69-7.38,35.42-16.23,46.77-26.29
			c17.67-15.67,21.38-31.52,21.38-42.06s-3.71-26.39-21.38-42.06c-11.35-10.06-27.08-18.9-46.77-26.29
			C353.33,176.35,303.12,168.49,250.02,168.49L250.02,168.49z"/>
	</g>
	<g>
		<path class="st2" d="M168.49,282.29c16.22-5.04,49.12-13.8,81.53-13.8c32.41,0,65.31,8.76,81.53,13.8l-81.53,152.87L168.49,282.29
			z"/>
		<path class="st1" d="M250.02,278.02c25.02,0,50.46,5.47,67.61,10.14l-67.61,126.77l-67.61-126.77
			C199.56,283.49,225,278.02,250.02,278.02 M250.02,258.97c-47.62,0-95.24,17.86-95.24,17.86l95.24,178.57l95.24-178.57
			C345.25,276.83,297.64,258.97,250.02,258.97L250.02,258.97z"/>
	</g>
	<g>
		<circle class="st2" cx="226.21" cy="235.16" r="11.9"/>
	</g>
	<g>
		<circle class="st2" cx="273.83" cy="235.16" r="11.9"/>
	</g>
</g>
</svg>
