<?xml version="1.0" encoding="utf-8"?>
<!-- Generator: Adobe Illustrator 24.0.1, SVG Export Plug-In . SVG Version: 6.00 Build 0)  -->
<svg version="1.1" id="Layer_1" xmlns="http://www.w3.org/2000/svg" xmlns:xlink="http://www.w3.org/1999/xlink" x="0px" y="0px"
	 viewBox="0 0 500 500" style="enable-background:new 0 0 500 500;" xml:space="preserve">
<style type="text/css">
	.st0{fill:#FCEE21;}
	.st1{fill:#1B1464;}
	.st2{fill:#FFFFFF;}
</style>
<g>
	<circle class="st0" cx="250" cy="250" r="250"/>
</g>
<g>
	<polygon class="st1" points="345.2,235.2 154.8,235.2 250,44.7 	"/>
	<g>
		<path class="st1" d="M250,339.9c-52,0-101-7.6-138-21.5c-40-15-62-36.1-62-59.4s22-44.4,62-59.4c37-13.9,86-21.5,138-21.5
			s101,7.6,138,21.5c40,15,62,36.1,62,59.4s-22,44.4-62,59.4C351,332.3,302,339.9,250,339.9z"/>
		<path class="st0" d="M250,187.5c105.2,0,190.5,32,190.5,71.4s-85.3,71.4-190.5,71.4S59.5,298.4,59.5,259S144.8,187.5,250,187.5
			 M250,168.5c-53.1,0-103.3,7.9-141.4,22.1c-19.7,7.4-35.4,16.2-46.8,26.3c-17.7,15.7-21.4,31.5-21.4,42.1
			c0,10.5,3.7,26.4,21.4,42.1c11.3,10.1,27.1,18.9,46.8,26.3c38.1,14.3,88.3,22.1,141.4,22.1s103.3-7.9,141.4-22.1
			c19.7-7.4,35.4-16.2,46.8-26.3c17.7-15.7,21.4-31.5,21.4-42.1s-3.7-26.4-21.4-42.1c-11.4-10.1-27.1-18.9-46.8-26.3
			C353.3,176.4,303.1,168.5,250,168.5L250,168.5z"/>
	</g>
	<g>
		<path class="st2" d="M168.5,282.3c16.2-5,49.1-13.8,81.5-13.8s65.3,8.8,81.5,13.8L250,435.2L168.5,282.3z"/>
		<path class="st1" d="M250,278c25,0,50.5,5.5,67.6,10.1L250,414.9l-67.6-126.8C199.6,283.5,225,278,250,278 M250,259
			c-47.6,0-95.2,17.9-95.2,17.9L250,455.4l95.2-178.6C345.2,276.8,297.6,259,250,259L250,259z"/>
	</g>
	<g>
		<circle class="st2" cx="226.2" cy="235.2" r="11.9"/>
	</g>
	<g>
		<circle class="st2" cx="273.8" cy="235.2" r="11.9"/>
	</g>
</g>
</svg>
